<svg xmlns="http://www.w3.org/2000/svg" width="166" height="166" viewBox="0 0 166 166">
  <g id="icon_by_region" transform="translate(-392 287)">
    <rect id="Rectangle_10" data-name="Rectangle 10" width="166" height="166" transform="translate(392 -287)" fill="rgba(255,255,255,0.49)" opacity="0"/>
    <path id="Subtraction_3" data-name="Subtraction 3" d="M22.966,93.789,11.939,91.144l-8.691-10.6c0-.03.258-3.031.486-6.189.133-1.846.229-3.375.286-4.542a19.413,19.413,0,0,0,.031-2.669c-.22-1.336-.779-8.336-.8-8.634L0,48.243c.026-.074.653-1.832,1.456-3.771.478-1.153.922-2.14,1.321-2.933A9.415,9.415,0,0,1,4.05,39.491a3.271,3.271,0,0,0,.64-1.947,14.79,14.79,0,0,0-.071-2.71,31.449,31.449,0,0,0-.569-3.446c-.005-.015-.59-1.621-1.162-3.278-.337-.975-.606-1.782-.8-2.4a7.8,7.8,0,0,1-.363-1.389A9.056,9.056,0,0,1,2.049,22.9c.182-.669.436-1.541.733-2.522.56-1.846,1.129-3.6,1.268-3.9a15.669,15.669,0,0,1,1.089-1.493c.526-.68,1.24-1.582,2.12-2.681,1.5-1.878,2.984-3.694,3-3.71L11.939,3.4,22.966,1.971,38.452,0,47.1,6.373l9.318,2.215c.017.007,1.677.676,3.442,1.425,1.03.437,1.886.812,2.543,1.115a10.814,10.814,0,0,1,1.528.791,11.2,11.2,0,0,1,1.313,1.661c.544.765,1.241,1.784,2.071,3.03,1.405,2.108,2.742,4.19,2.755,4.21h0c.324-.009,3.229-.089,5.592-.089a26.972,26.972,0,0,1,2.826.089,2.115,2.115,0,0,0,.289.018,5.987,5.987,0,0,0,1.383-.211c.448-.112.957-.268,1.513-.464.943-.332,1.712-.671,1.719-.675L88,14.334H98.126l3.431-4.8,5.5,1.493v3.309l-4.317,4.409c.014,0,1.571.137,2.836.137a5.093,5.093,0,0,0,1.482-.137,3.787,3.787,0,0,0,.794-.485c.272-.2.592-.459.951-.766.608-.521,1.128-1.015,1.133-1.02l3.531,1.338v5.463l-10.726,3.11-10.163.827-9.184,4.177c.016.009,1.974,1.035,4.062,2.05,1.224.6,2.251,1.07,3.052,1.41a7.152,7.152,0,0,0,1.931.641.2.2,0,0,0,.138-.036,5.834,5.834,0,0,1,1.428-.576c.665-.217,1.555-.484,2.646-.793,1.863-.528,3.676-1,3.693-1l.008,0c.674.363,6.616,3.557,7.53,4.079a1.087,1.087,0,0,0,.506.087,9.922,9.922,0,0,0,1.918-.281c.679-.149,1.489-.357,2.408-.617,1.557-.442,2.918-.894,2.932-.9h8.884l4.421,6.183c.065.068,6.575,6.9,8.677,9.16a2.029,2.029,0,0,1,.459.759,1.808,1.808,0,0,1,.067.784,3.228,3.228,0,0,1-.6,1.4,7.69,7.69,0,0,1-1.088,1.218,12.186,12.186,0,0,1-1.507,1.184l-7.833,13.263-9.607-3.374H107.058l-8.932,3.374L86.945,72.052,76.291,67.141H70.068c-.094.023-2.341.577-4.77,1.264-1.441.408-2.655.779-3.607,1.105a10.645,10.645,0,0,0-2.329,1,2.385,2.385,0,0,1-1.372.315,10.01,10.01,0,0,1-1.9-.221c-.591-.118-1.246-.281-1.949-.487-1.186-.348-2.1-.694-2.134-.709L41.98,65.093l-3.528,2.048c-.006.072-.628,7.366-.693,8.522-.017.31-.492.816-1.451,1.549-.837.64-1.937,1.37-2.907,2.014a13.216,13.216,0,0,0-2.715,2.028c-.317.751-7.646,12.418-7.72,12.536ZM37.91,5.653h0l-9.6,1.263-8.856.755L16.387,8.785l-2.6,4.347-5.12,7.073L7.663,25.092l2.394,10.366L8.669,42.05,6.256,48.662l2.414,9.9,2.1,11.267-.716,7.214,5.224,7.4h5.264l5.5-9.953,6.822-4.657L34,61.436l9.8-5.309,9.4,5.309,5.521,1.229,4.754-1.229,8.372-1.4,8.195,1.4,6.234,3.4L86.4,64.8c2.031-.744,8.7-3.185,9.2-3.364.576-.2,10.868-1.388,10.972-1.4h8.866l8.957,2.629,4.919-8.592a8.1,8.1,0,0,0,.991-.522,4.72,4.72,0,0,0,.743-.556,1.636,1.636,0,0,0,.467-.668.737.737,0,0,0-.087-.639c-.213-.335-1.044-1.432-3.8-4.761-1.648-1.994-3.221-3.863-3.237-3.881l-3.012-3.269c-.02,0-2.361.3-4.736.63-4,.549-5.105.757-5.332.834-.779.266-6.2,1.789-6.256,1.8l-5.525-4.04-9.519,2.236-15.7-9.961,11.981-5.442,5.743-2.6h9.415l-4.619-1.752,1.485-3.626-8.3,1.709,0,0c-.143.12-1.432,1.206-2.773,2.286-.824.664-1.5,1.193-2.018,1.573a4.161,4.161,0,0,1-1.148.715c-.149,0-1.15.242-5.077,1.4-2.318.681-4.59,1.367-4.686,1.4H67.974L61.094,15.66h0c-.383-.116-3.844-1.167-7.486-2.313-2.23-.7-4.072-1.3-5.473-1.768A29.9,29.9,0,0,1,44.964,10.4c-.438-.239-1.506-.9-4.1-2.689-1.527-1.053-2.892-2.021-2.95-2.061h0Z" transform="translate(405.609 -245.68)" fill="#fff"/>
  </g>
</svg>
