<svg xmlns="http://www.w3.org/2000/svg" width="166" height="166" viewBox="0 0 166 166">
  <g id="icon_by_activity" transform="translate(-624 287)">
    <rect id="Rectangle_11" data-name="Rectangle 11" width="166" height="166" transform="translate(624 -287)" fill="rgba(255,255,255,0.49)" opacity="0"/>
    <g id="iconfinder_Picture22_3289563" transform="translate(644.027 -274.839)">
      <circle id="Ellipse_5" data-name="Ellipse 5" cx="12.259" cy="12.259" r="12.259" transform="translate(58.324 5)" fill="#fff"/>
      <path id="Path_13" data-name="Path 13" d="M101.69,55.486l-15.784-5.21s-8.735-20.227-9.041-20.84A12.325,12.325,0,0,0,66.139,23a11.852,11.852,0,0,0-5.21,1.226L39.476,32.654A6.071,6.071,0,0,0,36.1,36.025L28.443,54.414a6.144,6.144,0,0,0,5.67,8.428,5.943,5.943,0,0,0,5.67-3.831l6.283-15.937L52.5,40.622,41.928,92.263,21.394,117.241a6.079,6.079,0,0,0,.766,8.581,5.885,5.885,0,0,0,3.831,1.379,5.946,5.946,0,0,0,4.75-2.3l21.453-26.05a5.831,5.831,0,0,0,1.226-2.605L57.1,78.472l16.55,11.953v30.648a6.13,6.13,0,1,0,12.259,0V87.36a5.955,5.955,0,0,0-2.452-4.9L68.591,71.576l4.137-20.687,2.912,6.742A6.63,6.63,0,0,0,79.318,61l18.389,6.13a7.764,7.764,0,0,0,1.992.306,6.275,6.275,0,0,0,5.823-4.137A6.163,6.163,0,0,0,101.69,55.486Z" transform="translate(0 9.583)" fill="#fff"/>
    </g>
  </g>
</svg>
