<svg xmlns="http://www.w3.org/2000/svg" width="189" height="189" viewBox="0 0 189 189">
  <g id="icon_toursy_green" transform="translate(507 -541)">
    <circle id="Ellipse_10" data-name="Ellipse 10" cx="94.5" cy="94.5" r="94.5" transform="translate(-507 541)" fill="#54bfa0"/>
    <path id="Union_5" data-name="Union 5" d="M63.079,156.4A78.566,78.566,0,0,1,34.83,144.508,79.228,79.228,0,0,1,6.208,109.75a78.549,78.549,0,0,1-4.6-14.829,79.749,79.749,0,0,1,0-31.842A78.546,78.546,0,0,1,13.492,34.83,79.234,79.234,0,0,1,48.25,6.208a78.549,78.549,0,0,1,14.829-4.6,79.749,79.749,0,0,1,31.842,0A78.546,78.546,0,0,1,123.17,13.492,79.238,79.238,0,0,1,151.792,48.25a78.608,78.608,0,0,1,4.6,14.829,79.786,79.786,0,0,1,0,31.842,78.566,78.566,0,0,1-11.887,28.249,79.232,79.232,0,0,1-34.757,28.622,78.608,78.608,0,0,1-14.829,4.6,79.786,79.786,0,0,1-31.842,0ZM54.3,20.528A63.483,63.483,0,0,0,93.7,140.751c-3-4.7-6.148-9.308-8.871-14.16-5.7-10.151-8.767-21.3-11.737-32.467-.45-1.69-.5-4.019-1.622-4.853-.875-.65-2.3-.58-3.7-.51-.535.026-1.067.054-1.564.04-2.274-.061-4.55-.047-7.029-.067.664,2.479,1.331,4.638,1.776,6.842a2.491,2.491,0,0,1-.683,1.994,48.985,48.985,0,0,1-5.058,3.895,3.666,3.666,0,0,1-2.36.555c-2.268-.326-4.505-.864-7.07-1.382.552,2.06,1.083,3.784,1.445,5.544a2.124,2.124,0,0,1-.4,1.757c-3.135,2.489-6.352,4.874-9.544,7.29q-1.025-3.821-2.048-7.642a7.391,7.391,0,0,0,.083-1.082c-.985-14.772,4.36-26.527,16.651-34.978.179-.124.344-.267.849-.66L32.931,68.255a26.32,26.32,0,0,1,9.541-10.978c1.725-1.111,3.591-2,5.392-3l5.458-1.463a3.854,3.854,0,0,0,.9.094A23.57,23.57,0,0,1,67.721,55c1.271.611,2.508,1.292,3.847,1.986a24.867,24.867,0,0,1,9.983-10.764c1.246-.7,2.528-1.326,3.793-1.987L90.8,42.776a6.089,6.089,0,0,0,1.092.06,26.276,26.276,0,0,1,13.448,1.851c1.749.733,3.392,1.718,5.289,2.695L94.537,59.7l1.4.115c13.234,1.079,23.173,7.45,29.966,18.776,1.185,1.974,2.055,4.139,3.069,6.215q.683,2.548,1.365,5.094a5.73,5.73,0,0,1-1.685.314c-3.236-.385-6.457-.908-9.7-1.255a1.944,1.944,0,0,1-1.945-1.819c-.355-1.668-.862-3.3-1.359-5.16a7.375,7.375,0,0,0-1.183.929c-3.32,4.425-7.653,5.157-12.742,3.762-1.218-.334-1.785-.73-2.05-1.936-.462-2.111-1.093-4.187-1.7-6.441L87.372,84.675a2.687,2.687,0,0,0,.01.509q1.157,4.37,2.323,8.736a76.444,76.444,0,0,0,22.12,36.726q.855.8,1.725,1.59.468-.3.93-.616a63.639,63.639,0,0,0,22.991-27.92,63.378,63.378,0,0,0-5.85-60.182A63.638,63.638,0,0,0,103.7,20.528a63.666,63.666,0,0,0-49.4,0Z" transform="translate(-491 557)" fill="#fff"/>
  </g>
</svg>
