<svg xmlns="http://www.w3.org/2000/svg" width="166" height="166" viewBox="0 0 166 166">
  <g id="icon_map_view" transform="translate(-841 287)">
    <rect id="Rectangle_12" data-name="Rectangle 12" width="166" height="166" transform="translate(841 -287)" fill="rgba(255,255,255,0.49)" opacity="0"/>
    <g id="Layer_23" data-name="Layer 23" transform="translate(868.082 -251.959)">
      <path id="Path_14" data-name="Path 14" d="M4.642,91.436a3.42,3.42,0,0,1-2.11-.691A3.638,3.638,0,0,1,1,87.8V18.671a3.638,3.638,0,0,1,2.474-3.638L36.222,4.118a3.857,3.857,0,0,1,2.219,0L73.768,15.033,105.421,4.482a3.583,3.583,0,0,1,4.73,3.274V76.883a3.638,3.638,0,0,1-2.474,3.456L74.933,91.254a3.857,3.857,0,0,1-2.219,0L37.386,80.7,5.806,91.436a4.329,4.329,0,0,1-1.164,0ZM37.386,73.245a3.638,3.638,0,0,1,1.055,0L73.768,84.16l29.106-9.714V12.814l-27.942,9.5a3.856,3.856,0,0,1-2.219,0L37.386,11.577,8.28,21.291v61.45l27.942-9.314a4.329,4.329,0,0,1,1.164-.182Zm69.127,3.638Z" transform="translate(0 0)" fill="#fff"/>
      <path id="Path_15" data-name="Path 15" d="M23.638,79.765A3.638,3.638,0,0,1,20,76.127V10.638a3.638,3.638,0,1,1,7.276,0V76.127A3.638,3.638,0,0,1,23.638,79.765Z" transform="translate(50.13 8.033)" fill="#fff"/>
      <path id="Path_16" data-name="Path 16" d="M13.638,76.765A3.638,3.638,0,0,1,10,73.127V7.638a3.638,3.638,0,1,1,7.276,0V73.127A3.638,3.638,0,0,1,13.638,76.765Z" transform="translate(23.748 0.118)" fill="#fff"/>
    </g>
  </g>
</svg>
