<svg xmlns="http://www.w3.org/2000/svg" width="263" height="337" viewBox="0 0 263 337">
  <g id="icon_map_pin.svg" transform="translate(633 773)">
    <path id="Union_3" data-name="Union 3" d="M83.732,254.055a131.5,131.5,0,1,1,95.535,0L131.5,337Z" transform="translate(-633 -773)" fill="#28886c"/>
    <path id="Union_4" data-name="Union 4" d="M73.06,181.141a91,91,0,0,1-32.719-13.768A91.764,91.764,0,0,1,7.19,127.116,90.978,90.978,0,0,1,1.859,109.94a92.367,92.367,0,0,1,0-36.88A90.974,90.974,0,0,1,15.627,40.342,91.771,91.771,0,0,1,55.885,7.19,90.978,90.978,0,0,1,73.06,1.859a92.367,92.367,0,0,1,36.88,0,90.974,90.974,0,0,1,32.719,13.767A91.775,91.775,0,0,1,175.81,55.885a91.046,91.046,0,0,1,5.332,17.176,92.411,92.411,0,0,1,0,36.88,91,91,0,0,1-13.768,32.719,91.768,91.768,0,0,1-40.257,33.151,91.046,91.046,0,0,1-17.176,5.332,92.411,92.411,0,0,1-36.88,0ZM62.89,23.776a73.528,73.528,0,0,0,45.638,139.246c-3.471-5.441-7.121-10.781-10.275-16.4-6.6-11.758-10.154-24.673-13.594-37.6-.521-1.958-.577-4.655-1.878-5.621-1.013-.752-2.662-.671-4.287-.59-.619.031-1.236.062-1.812.047-2.634-.071-5.27-.054-8.141-.077.77,2.871,1.542,5.372,2.057,7.924a2.886,2.886,0,0,1-.791,2.309,56.735,56.735,0,0,1-5.858,4.511,4.245,4.245,0,0,1-2.733.643c-2.627-.377-5.218-1-8.188-1.6.639,2.386,1.255,4.383,1.673,6.421a2.46,2.46,0,0,1-.465,2.035c-3.631,2.883-7.357,5.645-11.054,8.444Q42,129.037,40.811,124.61a8.561,8.561,0,0,0,.1-1.254c-1.141-17.11,5.05-30.724,19.285-40.513.207-.143.4-.31.983-.765L38.141,79.055A30.484,30.484,0,0,1,49.192,66.34c2-1.287,4.159-2.321,6.245-3.47l6.322-1.695a4.464,4.464,0,0,0,1.041.109,27.3,27.3,0,0,1,15.637,2.421c1.472.707,2.905,1.5,4.456,2.3A28.8,28.8,0,0,1,94.455,53.539c1.443-.806,2.928-1.536,4.393-2.3l6.323-1.694a7.053,7.053,0,0,0,1.265.069,30.433,30.433,0,0,1,15.576,2.144c2.026.849,3.929,1.99,6.125,3.121L109.5,69.151l1.627.133c15.328,1.249,26.84,8.628,34.708,21.747,1.373,2.287,2.38,4.793,3.554,7.2q.791,2.951,1.581,5.9a6.637,6.637,0,0,1-1.952.364c-3.748-.446-7.478-1.052-11.229-1.454a2.252,2.252,0,0,1-2.253-2.107c-.411-1.932-1-3.827-1.574-5.977a8.542,8.542,0,0,0-1.37,1.076c-3.845,5.126-8.864,5.973-14.758,4.357-1.411-.387-2.067-.845-2.374-2.243-.535-2.445-1.265-4.849-1.966-7.46L101.2,98.073a3.112,3.112,0,0,0,.012.59q1.341,5.061,2.691,10.119a88.539,88.539,0,0,0,25.62,42.538q.991.93,2,1.842.542-.352,1.077-.713a73.708,73.708,0,0,0,26.629-32.338,73.407,73.407,0,0,0-6.776-69.7A73.708,73.708,0,0,0,120.11,23.776a73.74,73.74,0,0,0-57.219,0Z" transform="translate(-593 -732)" fill="#fff"/>
  </g>
</svg>
