<svg xmlns="http://www.w3.org/2000/svg" width="166" height="166" viewBox="0 0 166 166">
  <g id="icon_top_rated" transform="translate(-153 287)">
    <g id="iconfinder_politic_465072" transform="translate(165.3 -261.008)">
      <path id="Path_17" data-name="Path 17" d="M116.845,81.112a40.556,40.556,0,1,1,40.545-40.567A40.6,40.6,0,0,1,116.845,81.112Zm0-62.221a21.665,21.665,0,1,0,21.676,21.676A21.7,21.7,0,0,0,116.845,18.891Z" transform="translate(-46.212)" fill="#fff"/>
      <circle id="Ellipse_6" data-name="Ellipse 6" cx="15.656" cy="15.656" r="15.656" transform="translate(54.976 24.888)" fill="#fff"/>
      <path id="Path_18" data-name="Path 18" d="M34.782,304.5,16.7,335.206l16.937,2.134L43.7,351.11l17.948-30.459A37.916,37.916,0,0,1,34.782,304.5Z" transform="translate(0 -236.102)" fill="#fff"/>
      <path id="Path_19" data-name="Path 19" d="M322.143,304.5l18.1,30.706-16.937,2.134L313.248,351.11,295.3,320.651A37.915,37.915,0,0,0,322.143,304.5Z" transform="translate(-216.02 -236.102)" fill="#fff"/>
    </g>
    <rect id="Rectangle_9" data-name="Rectangle 9" width="166" height="166" transform="translate(153 -287)" fill="rgba(255,255,255,0.49)" opacity="0"/>
  </g>
</svg>
