<svg xmlns="http://www.w3.org/2000/svg" width="271.914" height="117.676" viewBox="0 0 271.914 117.676">
  <path id="toursy_logo_letters" d="M50.924,15.053a11.916,11.916,0,0,1-4.937-1.676q-3.2-1.676-6.014-11.908A145.755,145.755,0,0,1,36.622-25.7Q36.263-36.11,36.263-45.8q0-17.234,1.2-32.374A94.251,94.251,0,0,0,24-79.136q-.359,0-4.159.06t-9.185,3.291Q5.266-72.553,3.59-64.235a1.654,1.654,0,0,1-1.676,1.5l-.479-.06A1.731,1.731,0,0,1,0-64.654v-.359q1.735-13.225,6.493-18.64a17.469,17.469,0,0,1,11.938-6.074q2.753-.239,5.745-.239a92.9,92.9,0,0,1,10.652.658,124.7,124.7,0,0,0,14.242.778q3.172,0,10.382-.3T78.69-94.754a1.945,1.945,0,0,1,1.676.957,2.112,2.112,0,0,1,.18.838,2.222,2.222,0,0,1-.359,1.137A42,42,0,0,1,67.8-79.734,22.69,22.69,0,0,1,55.173-76.2a31.45,31.45,0,0,1-4.668-.359q-1.137,14.721-1.137,31.356,0,29.621,3.351,43.384,1.556,6.164,3.83,6.164A14.447,14.447,0,0,0,58.1,4.012q1.376-.329,5.386-8.168Q68.7-14.149,75.7-33.837a1.785,1.785,0,0,1,1.8-1.316,1.6,1.6,0,0,1,.6.12A1.807,1.807,0,0,1,79.348-33.3a1.757,1.757,0,0,1-.12.658Q72.167-12.773,66.782-2.48,62.593,7.812,57.387,12.181,54.036,15.053,50.924,15.053Zm35.844-59.6a4.03,4.03,0,0,1,.658.06,14.444,14.444,0,0,1,4.129.778,12.366,12.366,0,0,1,7,5.206,12.2,12.2,0,0,1,1.227,4.1,18.749,18.749,0,0,1-.15,5.834,23.6,23.6,0,0,0,9.156-5.565,1.949,1.949,0,0,1,1.316-.359,1.661,1.661,0,0,1,1.2.658,1.7,1.7,0,0,1,.389,1.316,1.77,1.77,0,0,1-.688,1.2A26.411,26.411,0,0,1,99.1-24.142a23.331,23.331,0,0,1-2.723,7.51,24.488,24.488,0,0,1-3.381,4.578,16.773,16.773,0,0,1-7.45,4.129,9.258,9.258,0,0,1-8.228-1.2Q73.6-13.192,72.5-20.163a65.79,65.79,0,0,1-.928-12.357q.12-.658,1.376-1.436a20.524,20.524,0,0,1,2.723-1.406,18.744,18.744,0,0,1,2.124-.808,4.361,4.361,0,0,0,.06-.718,6.863,6.863,0,0,1,.06-.838,1.758,1.758,0,0,1,.06-.419h0a.7.7,0,0,1,.12-.18,7.8,7.8,0,0,1,1.017-2.453Q81.383-44.428,86.768-44.548Zm-.479,3.531q-3.172.18-4.189,2.154a5.826,5.826,0,0,0-.658,2.633,1.967,1.967,0,0,0-.06.479v.419l.12.838a2.375,2.375,0,0,1,.239,1.077,11.694,11.694,0,0,0,.957,2.035A9.957,9.957,0,0,0,86.29-28a11.73,11.73,0,0,0,5.924,1.346,16.61,16.61,0,0,0,3.531-.419,16.525,16.525,0,0,0,.9-4.009,9.482,9.482,0,0,0-1.137-5.565q-1.316-2.334-5.027-3.65a17.187,17.187,0,0,0-3.231-.658A7.712,7.712,0,0,0,86.29-41.017Zm-4.847,13.7q0,1.137.06,2.154a18.7,18.7,0,0,0,1.316,5.416A5.239,5.239,0,0,0,85.9-16.423q2,.658,5.176-2.573a20.139,20.139,0,0,0,2.992-4.249,4.361,4.361,0,0,0-.718.06,5.8,5.8,0,0,1-1.137.12Q85.213-23.3,81.443-27.314Zm34.348-20.465a6.465,6.465,0,0,1,5.146,2.513,6.764,6.764,0,0,1,1.257,5.625,75.88,75.88,0,0,0-1.616,9.664,26.882,26.882,0,0,0-.06,5.356q1.2,3.531,3.471,1.316a35.157,35.157,0,0,0,3.231-3.77,21.911,21.911,0,0,1,.06-2.812A59.878,59.878,0,0,1,128-36.021q.479-2.723.718-3.86l.06-.06a6.346,6.346,0,0,1,2.244-3.77,6.665,6.665,0,0,1,4.159-1.5,6.553,6.553,0,0,1,5.176,2.513,6.455,6.455,0,0,1,1.227,5.565q-.18,1.017-.6,3.261a35.009,35.009,0,0,0-.539,4.757q-.419,5.027.419,6.373t2.154-.209q1.5-1.855,4.368-6.373a23.994,23.994,0,0,0,3.351-6.792,1.891,1.891,0,0,1,.808-1.2,1.731,1.731,0,0,1,1.406-.239,1.812,1.812,0,0,1,1.167.778,1.908,1.908,0,0,1,.269,1.376q-.838,3.71-5.146,10.412t-8.288,9.425a8.341,8.341,0,0,1-8.408.868,10.451,10.451,0,0,1-3.261-3.471,14.561,14.561,0,0,1-1.466-3.77,43.6,43.6,0,0,1-6.582,7.271q-3.59,3.142-7.121,2.633t-6.283-7.51q-2.214-7.9,1.5-22.979a6.631,6.631,0,0,1,2.3-3.77A6.665,6.665,0,0,1,115.791-47.779Zm33.331-1.2a5.9,5.9,0,0,1,2.872-1.406,5.983,5.983,0,0,1,3.291.269,3.945,3.945,0,0,1,2,1.765,5.583,5.583,0,0,1,.748,2.483,13.139,13.139,0,0,1-.9,5.027,30.078,30.078,0,0,1-2.154,4.548,1.784,1.784,0,0,1-.18.239l-.12.239a.666.666,0,0,1,.3-.06,4.725,4.725,0,0,0,.718-.18,17.513,17.513,0,0,0,3.89-2.753l.239-.12a24.154,24.154,0,0,1,4.069-2.962,6.35,6.35,0,0,1,4.638-.778q2.424.509,4.877,4.279a11.562,11.562,0,0,1,1.287,4.727,19.309,19.309,0,0,1-.329,3.949q-.06.479-.12,1.017-.419,2.992-1.017,5.924l-.479,2.513q-.3,1.616-.479,2.992A17.248,17.248,0,0,0,175.6-21.21q2.244-3.231,4.817-7.181,1.616-2.453,3.052-4.608a1.868,1.868,0,0,1,1.287-.568,1.656,1.656,0,0,1,1.287.509,1.674,1.674,0,0,1,.6,1.287,2.1,2.1,0,0,1-.479,1.346,247.7,247.7,0,0,1-14.481,22.5,7.078,7.078,0,0,1-5.146,2.3,7.463,7.463,0,0,1-5.206-2,7.808,7.808,0,0,1-2.394-5.864,38.175,38.175,0,0,1,.838-9.156q.3-1.5.718-3.351a55.049,55.049,0,0,0,1.436-8.856L157.14-32.7a8.161,8.161,0,0,1-6.762-.06,7.17,7.17,0,0,1-3.411-4.727,13.7,13.7,0,0,1-.3-6.1A9.107,9.107,0,0,1,149.122-48.976Zm5.266,3.291a1.344,1.344,0,0,0-.957-1.137,1.7,1.7,0,0,0-1.735.479,6.272,6.272,0,0,0-1.376,3.351,11.2,11.2,0,0,0,.18,4.488,4.056,4.056,0,0,0,.6,1.316.391.391,0,0,1,.18-.18q.12-.18.239-.329a4.292,4.292,0,0,0,.3-.449,30.224,30.224,0,0,0,1.855-3.949A12.273,12.273,0,0,0,154.388-45.685Zm45.838-6.7q7.48,1.137,10.023,6.044a21.24,21.24,0,0,1,2.244,11.011,1.93,1.93,0,0,1-.778,1.2,1.827,1.827,0,0,1-1.376.3,1.779,1.779,0,0,1-1.167-.808,2.008,2.008,0,0,1-.269-1.406,7.267,7.267,0,0,0-3.68-4.428,6.837,6.837,0,0,0-4.967-.389,5.87,5.87,0,0,0-3.68,3.142,5.272,5.272,0,0,0,1.107,4.967,21.9,21.9,0,0,0,4.817,4.518q2.932,2.064,5.206,3.381a13.364,13.364,0,0,1,2.154,1.436q1.316-1.137,2.633-2.214a68.536,68.536,0,0,0,10.831-10.113,1.822,1.822,0,0,1,1.2-.778,1.907,1.907,0,0,1,1.376.3A1.835,1.835,0,0,1,226.675-35a1.824,1.824,0,0,1-.359,1.406,34.916,34.916,0,0,1-4.877,5.3q-2.9,2.6-6.134,5.236-1.257,1.017-2.573,2.094l-.18.18a.172.172,0,0,1-.12.06,21.184,21.184,0,0,1,3.351,7.271,18.1,18.1,0,0,1,0,8.767A12.254,12.254,0,0,1,211.236,2.1a12.17,12.17,0,0,1-7.181,2.543A6.846,6.846,0,0,1,197.922.093q-1.825-4.249.209-9.933a18.266,18.266,0,0,1,1.646-2.9q1.107-1.646,2.064-2.842A13.518,13.518,0,0,0,197.832-21a29.217,29.217,0,0,0-5.206-3.2,29.218,29.218,0,0,1-5.206-3.2,12.571,12.571,0,0,1-3.89-5.535,15.415,15.415,0,0,1,1.257-10.652,15.108,15.108,0,0,1,6.044-6.463,18.45,18.45,0,0,1,8.019-2.334Zm2.693,41.35a5.446,5.446,0,0,1-.419.6,2.921,2.921,0,0,0-.658.838,5.229,5.229,0,0,0-.479,1.616q-.18,1.556.389,1.616t1.287-2.094A4.571,4.571,0,0,0,202.918-11.037Zm27.766-35.545a6.667,6.667,0,0,1,4.907,2.364,6.466,6.466,0,0,1,1.5,5.176q-1.376,10.951-1.2,14.9,1.316.539,2.842-2.364t3.321-7.271a89.619,89.619,0,0,1,4.1-8.976q2.184-4.129,4.578-4.668,2.872-.18,4.907,3.351a27.8,27.8,0,0,1,3.022,8.467,40.19,40.19,0,0,1,.868,9.006q.9-.778,2.633-2.453t3.471-3.411l2.633-2.633.479-.479a2.093,2.093,0,0,1,1.346-.568,1.582,1.582,0,0,1,1.287.568,1.756,1.756,0,0,1,.539,1.287,1.86,1.86,0,0,1-.6,1.346q-.6.6-2.872,2.812T263.507-25.4q-2.663,2.513-4.4,4.009a107.929,107.929,0,0,1-2.992,15.678,72.132,72.132,0,0,1-7.66,19.209,22.517,22.517,0,0,1-6.164,7,13.767,13.767,0,0,1-4.757,2.094,12.052,12.052,0,0,1-5.6,0,6.9,6.9,0,0,1-5.027-5.236q-1.017-4.039,1.316-10.5,3.231-7,10.951-14.781,2.513-2.633,5.206-5.146a84.471,84.471,0,0,0,1.975-13.7,40.623,40.623,0,0,0-.06-5.086q-2.154,5.745-4.488,10.592a25.127,25.127,0,0,1-5.3,7.6,8.1,8.1,0,0,1-6.912,2.214,8.3,8.3,0,0,1-4.428-2.872,10.164,10.164,0,0,1-1.825-3.441,17.271,17.271,0,0,1-.568-3.321q-.658-6.283,1.257-19.687a6.561,6.561,0,0,1,2.214-4.189A6.518,6.518,0,0,1,230.684-46.583ZM242.533-6.071l-.239.239-.479.479q-7.48,7.779-10.173,13.644a11.769,11.769,0,0,0-.6,1.8,2.677,2.677,0,0,0,3.441-.239,12.708,12.708,0,0,0,2.783-3.291A55.928,55.928,0,0,0,242.533-6.071Z" transform="translate(0 94.754)" fill="#fff"/>
</svg>
